<svg xmlns="http://www.w3.org/2000/svg" xmlns:xlink="http://www.w3.org/1999/xlink" x="0px" y="0px"
	 width="132px" height="20px" viewBox="0 0 132 20" enable-background="new 0 0 132 20" xml:space="preserve">
<g>
	<path d="M13.53,15.036H6.16l-1.568,4.673H0.5L7.494,0.555h4.789l6.995,19.154h-4.151L13.53,15.036z M12.543,12.076l-1.798-5.397
		L9.874,3.777H9.816L9.003,6.621l-1.857,5.455H12.543z"/>
	<path d="M42.263,1.15c1.277,0.591,2.398,1.524,3.366,2.801L42.873,6.65c-0.504-1.045-1.172-1.823-2.003-2.336
		c-0.833-0.512-1.887-0.769-3.164-0.769c-1.161,0-2.057,0.217-2.685,0.652c-0.629,0.436-0.942,1.012-0.942,1.728
		c0,0.658,0.319,1.18,0.958,1.567c0.638,0.387,1.789,0.725,3.454,1.016c1.741,0.329,3.125,0.735,4.149,1.218
		c1.025,0.483,1.774,1.088,2.249,1.814c0.475,0.725,0.711,1.631,0.711,2.714c0,1.18-0.333,2.202-1,3.062
		c-0.668,0.86-1.596,1.523-2.787,1.986C40.624,19.768,39.263,20,37.735,20c-2.109,0-3.836-0.296-5.181-0.886
		c-1.345-0.59-2.433-1.485-3.265-2.684l2.38-2.845c0.716,1.181,1.538,1.998,2.466,2.452c0.93,0.455,2.081,0.684,3.455,0.684
		c1.237,0,2.181-0.195,2.829-0.582c0.647-0.387,0.972-0.938,0.972-1.654c0-0.522-0.305-0.958-0.914-1.306
		c-0.61-0.349-1.697-0.678-3.265-0.987c-1.8-0.367-3.236-0.802-4.31-1.306c-1.074-0.503-1.852-1.122-2.336-1.857
		c-0.483-0.735-0.726-1.644-0.726-2.728c0-1.142,0.309-2.172,0.929-3.091c0.619-0.918,1.523-1.639,2.713-2.162
		c1.19-0.523,2.587-0.784,4.194-0.784C39.457,0.265,40.986,0.561,42.263,1.15z"/>
	<path d="M64.782,10.945l-2.729,3.106v5.658h-4.004V0.555h4.004v9.083l7.865-9.083h4.644l-6.878,7.807l7.11,11.347H70.21
		L64.782,10.945z"/>
	<path d="M93.192,10.945l-2.726,3.106v5.658h-4.006V0.555h4.006v9.083l7.864-9.083h4.643l-6.877,7.807l7.109,11.347h-4.585
		L93.192,10.945z"/>
	<path d="M125.755,15.036h-7.371l-1.567,4.673h-4.091l6.992-19.154h4.79l6.992,19.154h-4.15L125.755,15.036z M124.77,12.076
		l-1.799-5.397l-0.872-2.902h-0.058l-0.813,2.844l-1.855,5.455H124.77z"/>
</g>
</svg>
